<svg xmlns="http://www.w3.org/2000/svg" width="149" height="55.009" viewBox="0 0 149 55.009"><g transform="translate(-900 -1922.991)"><rect width="149" height="7" rx="3.5" transform="translate(900 1959)" fill="#c69c6d"/><rect width="31" height="7" rx="3.5" transform="translate(1049 1947) rotate(90)" fill="#c69c6d"/><rect width="31" height="7" rx="3.5" transform="translate(907 1947) rotate(90)" fill="#c69c6d"/><path d="M-41.734-9.2c1.472,0,2,1.012,2,2.346V0h3.588V-7.659c0-2.806-1.311-4.9-4.324-4.9A5.023,5.023,0,0,0-44.54-10.6a3.871,3.871,0,0,0-3.588-1.955,4.122,4.122,0,0,0-3.588,1.886h-.046v-1.61h-3.519V0h3.588V-6.808A2.1,2.1,0,0,1-49.508-9.2c1.472,0,2,1.058,2,2.392V0h3.565V-6.854A2.094,2.094,0,0,1-41.734-9.2ZM-29.5.23a4.336,4.336,0,0,0,3.68-1.771l.046.023V0h3.312V-7.613c0-3.312-2.208-4.945-5.336-4.945-2.783,0-4.646,1.1-5.635,2.921L-30.694-8A2.9,2.9,0,0,1-27.957-9.66c1.357,0,1.978.736,1.978,1.518a.854.854,0,0,1-.966.9h-1.219c-2.484,0-5.474.736-5.474,3.772v.046C-33.638-1.15-31.706.23-29.5.23Zm1.035-2.622c-.851,0-1.564-.368-1.564-1.242,0-.966.9-1.4,1.863-1.4H-26v.276A2.294,2.294,0,0,1-28.463-2.392ZM-20.666,0h3.979l2.369-3.611L-11.972,0h4.025l-4.439-6.256,4.324-6.026h-3.956l-2.277,3.473L-16.5-12.282h-4.025l4.278,6.095ZM-4.083.276A2.488,2.488,0,0,0-1.6-2.208,2.479,2.479,0,0,0-4.083-4.715,2.493,2.493,0,0,0-6.567-2.208,2.5,2.5,0,0,0-4.083.276ZM19.4-6.026a5.421,5.421,0,0,0-5.773-5.75,4.958,4.958,0,0,0-3.243,1.2l.575-4.048H18.6v-3.381H7.992L6.681-8.878l3.5,1.426A3.685,3.685,0,0,1,12.638-8.51c1.909,0,3.013,1.058,3.013,2.576a2.629,2.629,0,0,1-2.875,2.668A3.6,3.6,0,0,1,9.372-5.2L6.2-3.312C7.463-.874,9.786.207,12.684.207,16.456.207,19.4-2.139,19.4-6.026Zm8.579,6.3a5.934,5.934,0,0,0,5.911-3.818L30.716-4.853A2.774,2.774,0,0,1,28-3.036a2.9,2.9,0,0,1-2.944-3.128A2.907,2.907,0,0,1,28-9.269a2.674,2.674,0,0,1,2.645,1.817L33.8-8.763a5.761,5.761,0,0,0-5.8-3.8,6.471,6.471,0,0,0-6.624,6.44A6.292,6.292,0,0,0,27.979.276ZM49.807-9.2c1.472,0,2,1.012,2,2.346V0H55.4V-7.659c0-2.806-1.311-4.9-4.324-4.9A5.023,5.023,0,0,0,47-10.6a3.871,3.871,0,0,0-3.588-1.955,4.122,4.122,0,0,0-3.588,1.886h-.046v-1.61H36.26V0h3.588V-6.808A2.1,2.1,0,0,1,42.033-9.2c1.472,0,2,1.058,2,2.392V0H47.6V-6.854A2.094,2.094,0,0,1,49.807-9.2Z" transform="translate(976 1941)" fill="#c69c6d"/></g></svg>