<svg xmlns="http://www.w3.org/2000/svg" width="75.813" height="60.65" viewBox="0 0 75.813 60.65"><path d="M21.8,15.163H16.11a.95.95,0,0,0-.948.948V44.54a.95.95,0,0,0,.948.948H21.8a.95.95,0,0,0,.948-.948V16.11A.95.95,0,0,0,21.8,15.163ZM17.058,53.069H7.581V43.592a1.9,1.9,0,0,0-1.9-1.9H1.9a1.9,1.9,0,0,0-1.9,1.9V58.755a1.9,1.9,0,0,0,1.9,1.9H17.058a1.9,1.9,0,0,0,1.9-1.9V54.964A1.9,1.9,0,0,0,17.058,53.069Zm12.32-37.906h-1.9a.95.95,0,0,0-.948.948V44.54a.95.95,0,0,0,.948.948h1.9a.95.95,0,0,0,.948-.948V16.11A.95.95,0,0,0,29.377,15.163ZM1.9,18.953H5.686a1.9,1.9,0,0,0,1.9-1.9V7.581h9.477a1.9,1.9,0,0,0,1.9-1.9V1.9a1.9,1.9,0,0,0-1.9-1.9H1.9A1.9,1.9,0,0,0,0,1.9V17.058A1.9,1.9,0,0,0,1.9,18.953Zm46.435-3.791H42.645a.95.95,0,0,0-.948.948V44.54a.95.95,0,0,0,.948.948h5.686a.95.95,0,0,0,.948-.948V16.11A.95.95,0,0,0,48.331,15.163Zm-11.372,0h-1.9a.95.95,0,0,0-.948.948V44.54a.95.95,0,0,0,.948.948h1.9a.95.95,0,0,0,.948-.948V16.11A.95.95,0,0,0,36.959,15.163ZM73.917,0H58.755a1.9,1.9,0,0,0-1.9,1.9V5.686a1.9,1.9,0,0,0,1.9,1.9h9.477v9.477a1.9,1.9,0,0,0,1.9,1.9h3.791a1.9,1.9,0,0,0,1.9-1.9V1.9A1.9,1.9,0,0,0,73.917,0Zm0,41.7H70.127a1.9,1.9,0,0,0-1.9,1.9v9.477H58.755a1.9,1.9,0,0,0-1.9,1.9v3.791a1.9,1.9,0,0,0,1.9,1.9H73.917a1.9,1.9,0,0,0,1.9-1.9V43.592A1.9,1.9,0,0,0,73.917,41.7ZM60.65,44.54V16.11a.95.95,0,0,0-.948-.948H54.017a.95.95,0,0,0-.948.948V44.54a.95.95,0,0,0,.948.948H59.7A.95.95,0,0,0,60.65,44.54Z" fill="#fff"/></svg>