<svg xmlns="http://www.w3.org/2000/svg" width="32.278" height="22.53" viewBox="0 0 32.278 22.53"><g transform="translate(8.31 -422.47)"><path d="M24.918,32.969l-3.521-6.8-3.521,6.8h-7.3l6.775-11.4-6.383-11.1h7.073l3.484,6.665,3.39-6.665h6.973l-6.284,11.2L32.649,33Z" transform="translate(-13.775 412)" fill="#575757"/><g transform="translate(-8.31 422.814)"><path d="M16.709,26.259a6.774,6.774,0,0,1,.246-1.789L15.51,22a8.991,8.991,0,0,0-.194,8.122l1.53-2.535A6.352,6.352,0,0,1,16.709,26.259Z" transform="translate(-6.824 -15.207)" fill="#575757"/><path d="M8.077,30.747a13.628,13.628,0,0,1,.311-17.773L7.215,11a15.781,15.781,0,0,0-.35,21.752Z" transform="translate(-2.69 -11)" fill="#575757"/><path d="M10.945,31.169l1.3-2.053a9.782,9.782,0,0,1,.24-10.846L11.23,16.23a11.889,11.889,0,0,0-.279,14.939Z" transform="translate(-4.716 -12.84)" fill="#575757"/></g><g transform="translate(13.85 422.814)"><path d="M38.616,26.259a6.774,6.774,0,0,0-.246-1.789L39.816,22a8.991,8.991,0,0,1,.194,8.122l-1.523-2.535a6.826,6.826,0,0,0,.13-1.329Z" transform="translate(-38.37 -15.207)" fill="#575757"/><path d="M45.481,30.747a13.628,13.628,0,0,0-.311-17.773L46.356,11a15.781,15.781,0,0,1,.35,21.752Z" transform="translate(-40.762 -11)" fill="#575757"/><path d="M43.556,31.169l-1.3-2.059A9.8,9.8,0,0,0,42,18.27l1.3-2.04a11.9,11.9,0,0,1,.285,14.939Z" transform="translate(-39.647 -12.84)" fill="#575757"/></g></g></svg>