<svg xmlns="http://www.w3.org/2000/svg" width="72.15" height="103.367" viewBox="0 0 72.15 103.367"><g transform="translate(-1756.299 -2125.862)"><g transform="translate(-12 5)"><path d="M57.115,82.52,45.688,60.754,34.261,82.52H10.58l21.988-36.5L11.85,10.47H34.8L46.111,31.813l11-21.343H79.748l-20.4,35.874L82.207,82.62Z" transform="translate(1757.829 2218.908) rotate(-90)" fill="#fff"/><g transform="translate(1769.367 2224.229) rotate(-90)" opacity="0.1"><path d="M21.494,35.241a21.061,21.061,0,0,1,.766-5.562L17.765,22a27.953,27.953,0,0,0-.6,25.253l4.756-7.88A19.75,19.75,0,0,1,21.494,35.241Z" transform="translate(9.24 0.169)" fill="#fff"/><path d="M19.437,74.3A44.721,44.721,0,0,1,20.4,17.328L16.757,11a51.735,51.735,0,0,0-1.088,69.732Z" transform="translate(-2.69 -11)" fill="#fff"/><path d="M16.21,64.78l4.031-6.671a32.992,32.992,0,0,1,.746-35.249L17.1,16.23a40.005,40.005,0,0,0-.867,48.55Z" transform="translate(3.157 -5.69)" fill="#fff"/></g><g transform="translate(1769.367 2152.321) rotate(-90)" opacity="0.1"><path d="M39.136,35.241a21.061,21.061,0,0,0-.766-5.562L42.864,22a27.953,27.953,0,0,1,.6,25.253l-4.736-7.88a21.222,21.222,0,0,0,.4-4.132Z" transform="translate(-38.37 0.169)" fill="#fff"/><path d="M46.137,74.3a44.721,44.721,0,0,0-.967-56.975L48.858,11a51.735,51.735,0,0,1,1.088,69.732Z" transform="translate(-31.465 -11)" fill="#fff"/><path d="M46.837,64.78l-4.031-6.691A33.052,33.052,0,0,0,42,22.861l4.031-6.631a40.045,40.045,0,0,1,.887,48.55Z" transform="translate(-34.684 -5.69)" fill="#fff"/></g></g></g></svg>