<svg xmlns="http://www.w3.org/2000/svg" width="280.049" height="77.372" viewBox="0 0 280.049 77.372"><g transform="translate(-2.02 -1.02)"><path d="M71.46,62.511V47.743H66.09V46.4H78.321v1.343h-5.37V62.511Z" transform="translate(21.949 15.546)" fill="#fff"/><path d="M75.83,61.28V50.1h1.343v1.343H77.4a2.148,2.148,0,0,1,.967-1.114,3.719,3.719,0,0,1,1.8-.322h1.343v1.343h-1.5a2.806,2.806,0,0,0-2.027.712,2.913,2.913,0,0,0-.765,2.229V61.28Z" transform="translate(25.286 16.777)" fill="#fff"/><path d="M86.525,61.482a4.981,4.981,0,0,1-2.229-.5,3.907,3.907,0,0,1-1.638-1.531A4.994,4.994,0,0,1,82,56.89V50.07h1.343v6.713a3.356,3.356,0,0,0,.926,2.685,3.5,3.5,0,0,0,2.457.819A3.88,3.88,0,0,0,89.6,59.146a4.659,4.659,0,0,0,1.155-3.437V50.07H92.1V61.254H90.754V59.186h-.269a4.2,4.2,0,0,1-1.343,1.6A4.538,4.538,0,0,1,86.525,61.482Z" transform="translate(27.399 16.804)" fill="#fff"/><path d="M97.336,61.646a6.109,6.109,0,0,1-3.477-.967,4.377,4.377,0,0,1-1.759-3.2l1.343-.255a4.028,4.028,0,0,0,.752,1.92,3.115,3.115,0,0,0,1.343,1.007,5.022,5.022,0,0,0,1.745.3,3.934,3.934,0,0,0,2.215-.564,1.759,1.759,0,0,0,.846-1.557,1.41,1.41,0,0,0-.806-1.343,7.371,7.371,0,0,0-2.094-.618l-1.061-.188a8.055,8.055,0,0,1-1.92-.564A3.464,3.464,0,0,1,93.12,54.6a2.564,2.564,0,0,1-.5-1.611A2.685,2.685,0,0,1,93.765,50.7a5.061,5.061,0,0,1,3.021-.832,4.994,4.994,0,0,1,3.075.859,3.826,3.826,0,0,1,1.5,2.443l-1.343.282a2.685,2.685,0,0,0-1.087-1.893,4.028,4.028,0,0,0-2.162-.55,3.692,3.692,0,0,0-2.014.483,1.6,1.6,0,0,0-.765,1.437,1.477,1.477,0,0,0,.685,1.343,5.478,5.478,0,0,0,1.893.631l1.061.188a9.881,9.881,0,0,1,2.068.537,3.558,3.558,0,0,1,1.463,1.007,2.537,2.537,0,0,1,.537,1.692,2.833,2.833,0,0,1-1.195,2.457A5.37,5.37,0,0,1,97.336,61.646Z" transform="translate(30.86 16.733)" fill="#fff"/><path d="M105.874,62.305a1.772,1.772,0,0,1-1.343-.456,1.745,1.745,0,0,1-.456-1.343V52.37H100.49V51.122h3.585V47h1.343v4.189h3.92V52.37h-3.92v8.055a.618.618,0,0,0,.7.7H108.8v1.235Z" transform="translate(33.734 15.752)" fill="#fff"/><path d="M114.4,61.65a5.975,5.975,0,0,1-3.007-.725,4.981,4.981,0,0,1-1.987-2.027,6.163,6.163,0,0,1-.725-3.021v-.282a6.1,6.1,0,0,1,.725-3.021,5.088,5.088,0,0,1,1.96-2.027,6.1,6.1,0,0,1,5.639,0,4.753,4.753,0,0,1,1.906,1.88,5.988,5.988,0,0,1,.685,2.94V56.1h-9.532a4.484,4.484,0,0,0,1.343,3.236,4.323,4.323,0,0,0,3.061,1.141,3.706,3.706,0,0,0,2.417-.712,4.78,4.78,0,0,0,1.343-1.759l1.249.55a6.484,6.484,0,0,1-.967,1.423,4.793,4.793,0,0,1-1.584,1.195A5.491,5.491,0,0,1,114.4,61.65Zm-4.31-6.807h8.055a3.853,3.853,0,0,0-1.168-2.806,4.5,4.5,0,0,0-5.572,0A4.458,4.458,0,0,0,110.09,54.843Z" transform="translate(36.539 16.73)" fill="#fff"/><path d="M124.368,62.833a5.37,5.37,0,0,1-2.685-.7,5.169,5.169,0,0,1-1.947-2,6.229,6.229,0,0,1-.725-3.075v-.282a6.229,6.229,0,0,1,.712-3.075,5.075,5.075,0,0,1,1.947-2,5.37,5.37,0,0,1,2.685-.7,5.612,5.612,0,0,1,2.094.336,4.31,4.31,0,0,1,1.343.846,4.5,4.5,0,0,1,.832,1.1h.282V46.4h1.343V62.511h-1.343V60.47h-.269a4.565,4.565,0,0,1-4.269,2.363Zm.322-1.235a4.108,4.108,0,0,0,3.088-1.222,4.618,4.618,0,0,0,1.195-3.356v-.188a4.632,4.632,0,0,0-1.195-3.37,4.108,4.108,0,0,0-3.088-1.208,4.162,4.162,0,0,0-3.088,1.208,4.632,4.632,0,0,0-1.195,3.37v.188a4.619,4.619,0,0,0,1.195,3.356,4.175,4.175,0,0,0,3.021,1.222Z" transform="translate(40.078 15.546)" fill="#fff"/><path d="M134.81,62.511V46.4h5.961a6.149,6.149,0,0,1,2.578.537,4.229,4.229,0,0,1,2.47,4.028v.269a4.31,4.31,0,0,1-.685,2.47,4.256,4.256,0,0,1-1.812,1.557,5.867,5.867,0,0,1-2.551.537h-4.484v6.713Zm1.477-8.055h4.323a4.122,4.122,0,0,0,2.685-.846,3.021,3.021,0,0,0,.994-2.4v-.228a2.994,2.994,0,0,0-.98-2.4,4.028,4.028,0,0,0-2.752-.832h-4.323Z" transform="translate(45.491 15.546)" fill="#fff"/><path d="M145.13,61.283V50.1h1.343v1.343h.269a2.148,2.148,0,0,1,.967-1.114,3.719,3.719,0,0,1,1.759-.336h1.343v1.343h-1.463a2.806,2.806,0,0,0-2.027.712,2.913,2.913,0,0,0-.765,2.229v7.008Z" transform="translate(49.027 16.775)" fill="#fff"/><path d="M156.446,61.659a5.907,5.907,0,0,1-2.981-.725,4.981,4.981,0,0,1-1.987-2.027,6.2,6.2,0,0,1-.7-3.021V55.6a6.23,6.23,0,0,1,.7-3.021,4.981,4.981,0,0,1,1.987-2.027,5.907,5.907,0,0,1,2.981-.725,5.975,5.975,0,0,1,2.981.725,5.035,5.035,0,0,1,1.974,2.027,6.243,6.243,0,0,1,.712,3.021v.282a6.2,6.2,0,0,1-.712,3.021,5.034,5.034,0,0,1-1.974,2.027A5.975,5.975,0,0,1,156.446,61.659Zm0-1.235a4.028,4.028,0,0,0,3.128-1.262,4.726,4.726,0,0,0,1.155-3.316v-.188a4.739,4.739,0,0,0-1.155-3.33,4.525,4.525,0,0,0-6.243,0,4.686,4.686,0,0,0-1.168,3.33v.188a4.672,4.672,0,0,0,1.168,3.316,4.028,4.028,0,0,0,3.115,1.262Z" transform="translate(50.962 16.721)" fill="#fff"/><path d="M166.747,62.833a5.371,5.371,0,0,1-2.685-.7,5.169,5.169,0,0,1-1.947-2,6.23,6.23,0,0,1-.725-3.075v-.282A6.377,6.377,0,0,1,162.1,53.7a5.169,5.169,0,0,1,1.947-2,5.37,5.37,0,0,1,2.685-.7,5.612,5.612,0,0,1,2.094.336,4.162,4.162,0,0,1,1.343.846,4.242,4.242,0,0,1,.846,1.1h.269V46.4h1.343V62.511h-1.343V60.47H171a4.78,4.78,0,0,1-1.5,1.638,4.914,4.914,0,0,1-2.752.725Zm.322-1.235a4.162,4.162,0,0,0,3.1-1.222,4.619,4.619,0,0,0,1.181-3.356v-.188a4.632,4.632,0,0,0-1.182-3.37,4.311,4.311,0,0,0-7.384,3.37v.188A4.578,4.578,0,0,0,164,60.376,4.149,4.149,0,0,0,167.07,61.6Z" transform="translate(54.597 15.546)" fill="#fff"/><path d="M177.2,61.482a4.954,4.954,0,0,1-2.215-.5,3.826,3.826,0,0,1-1.638-1.531,5,5,0,0,1-.6-2.564V50.07h1.343v6.713A3.343,3.343,0,0,0,175,59.468a3.558,3.558,0,0,0,2.47.819,3.907,3.907,0,0,0,2.873-1.141,4.659,4.659,0,0,0,1.155-3.437V50.07h1.343V61.254h-1.343V59.186h-.269a4.243,4.243,0,0,1-1.343,1.6A4.484,4.484,0,0,1,177.2,61.482Z" transform="translate(58.485 16.804)" fill="#fff"/><path d="M188.586,61.659a5.961,5.961,0,0,1-2.913-.7,5.182,5.182,0,0,1-2.014-2.014,6.3,6.3,0,0,1-.738-3.088V55.63a6.31,6.31,0,0,1,.738-3.1,5.236,5.236,0,0,1,2.014-2,5.961,5.961,0,0,1,2.913-.7,5.639,5.639,0,0,1,2.685.6,4.686,4.686,0,0,1,1.745,1.6,4.981,4.981,0,0,1,.806,2.054l-1.343.282a4.1,4.1,0,0,0-.564-1.651,3.356,3.356,0,0,0-1.343-1.195,4.337,4.337,0,0,0-2.054-.443,4.256,4.256,0,0,0-2.188.564,4.028,4.028,0,0,0-1.531,1.584,4.967,4.967,0,0,0-.564,2.43v.188a4.913,4.913,0,0,0,.564,2.417,4.028,4.028,0,0,0,1.531,1.6,4.256,4.256,0,0,0,2.188.564,3.853,3.853,0,0,0,2.806-.953,4.175,4.175,0,0,0,1.195-2.336l1.343.269A5.371,5.371,0,0,1,193,59.47a4.847,4.847,0,0,1-1.772,1.584,5.639,5.639,0,0,1-2.645.6Z" transform="translate(61.973 16.721)" fill="#fff"/><path d="M197.7,62.305a1.772,1.772,0,0,1-1.343-.456,1.745,1.745,0,0,1-.457-1.343V52.37H192.32V51.122h3.6V47h1.343v4.189h3.92V52.37h-3.92v8.055a.618.618,0,0,0,.7.7h2.685v1.235Z" transform="translate(65.193 15.752)" fill="#fff"/><path d="M205.873,61.648a6.1,6.1,0,0,1-3.464-.967,4.377,4.377,0,0,1-1.759-3.2l1.343-.255a3.921,3.921,0,0,0,.752,1.92,3.115,3.115,0,0,0,1.343,1.007,4.887,4.887,0,0,0,1.732.3,3.947,3.947,0,0,0,2.229-.564,1.786,1.786,0,0,0,.832-1.557,1.343,1.343,0,0,0-.792-1.343,7.479,7.479,0,0,0-2.108-.618l-1.061-.188a7.921,7.921,0,0,1-1.906-.564,3.37,3.37,0,0,1-1.343-1.02,2.564,2.564,0,0,1-.5-1.611,2.685,2.685,0,0,1,1.141-2.282,5.907,5.907,0,0,1,6.1,0,3.826,3.826,0,0,1,1.463,2.5l-1.343.282a2.685,2.685,0,0,0-1.1-1.893,3.921,3.921,0,0,0-2.148-.55,3.746,3.746,0,0,0-2.027.483,1.611,1.611,0,0,0-.752,1.437,1.477,1.477,0,0,0,.685,1.343,5.29,5.29,0,0,0,1.893.631l1.061.188a9.881,9.881,0,0,1,2.068.537,3.558,3.558,0,0,1,1.463,1.007,2.538,2.538,0,0,1,.537,1.692,2.86,2.86,0,0,1-1.034,2.43A5.37,5.37,0,0,1,205.873,61.648Z" transform="translate(68.047 16.731)" fill="#fff"/><path d="M41.08,52.707,33.468,38.194l-7.6,14.513H10.08L24.741,28.38,10.926,4.71H26.218L33.75,18.928,41.08,4.71H56.157L42.57,28.595,57.8,52.761Z" transform="translate(2.761 1.264)" fill="#fff"/><path d="M57.03,15.923a7.626,7.626,0,0,1-7.76-7.465,7.76,7.76,0,0,1,15.507,0A7.626,7.626,0,0,1,57.03,15.923ZM50.559,53.971V18.621H63.5v35.35Z" transform="translate(16.187)" fill="#fff"/><path d="M67,52.8V4.8s7.25-.362,15.574-.362c12.795,0,19.978,5.37,19.978,16.111,0,9.881-6.713,18.34-20.407,18.34-.994,0-1.92-.067-1.92-.067V52.8ZM80.224,27.841a15.036,15.036,0,0,0,2.484.215c3.84,0,6.189-2.282,6.189-6.337,0-3.759-1.92-6.391-6.713-6.391H80.2Z" transform="translate(22.261 1.172)" fill="#fff"/><path d="M126.28,52.707V33.79H111.914V52.707H98.69v-48h13.224V22.164H126.28V4.71H139.5v48Z" transform="translate(33.117 1.264)" fill="#fff"/><path d="M157.984,53.944c-15.144,0-22.9-8.176-22.9-23.75C135.08,13.2,146.532,4,159.69,4c15.144,0,22.891,8.176,22.891,23.75C182.581,44.694,171.142,53.944,157.984,53.944Zm.846-37.861c-5.975,0-9.519,4.484-9.519,12.875s3.128,12.862,9.519,12.862c5.974,0,9.532-4.4,9.532-12.795S165.234,16.083,158.83,16.083Z" transform="translate(45.584 1.021)" fill="#fff"/><path d="M198.184,53.944c-15.144,0-22.9-8.176-22.9-23.75C175.28,13.2,186.732,4,199.89,4c15.144,0,22.824,8.176,22.824,23.75C222.781,44.694,211.342,53.944,198.184,53.944Zm.886-37.861c-5.961,0-9.519,4.484-9.519,12.875s3.128,12.862,9.519,12.862c5.974,0,9.532-4.4,9.532-12.795S205.434,16.083,199.071,16.083Z" transform="translate(59.356 1.021)" fill="#fff"/><path d="M18.449,25.121a14,14,0,0,1,.51-3.692L15.965,16.3a18.622,18.622,0,0,0-.4,16.823l3.155-5.25a14.178,14.178,0,0,1-.269-2.752Z" transform="translate(4.018 5.235)" fill="#c69c6d"/><path d="M13.2,47.491a29.792,29.792,0,0,1,.644-37.955L11.391,5.28a34.464,34.464,0,0,0-.725,46.453Z" transform="translate(0 1.459)" fill="#c69c6d"/><path d="M12.946,42.883l2.685-4.444a22.018,22.018,0,0,1,.524-23.482L13.47,10.54a26.65,26.65,0,0,0-.577,32.343Z" transform="translate(1.949 3.261)" fill="#c69c6d"/></g></svg>